<svg width="8" height="13" viewBox="0 0 8 13" fill="none" xmlns="http://www.w3.org/2000/svg">
<path d="M3.74985 0.723267C1.68243 0.723267 0 2.65838 0 5.03753C0 8.41803 3.39737 11.9085 3.54195 12.0551C3.59909 12.1135 3.67308 12.1458 3.74977 12.1459C3.82647 12.146 3.90051 12.1138 3.95776 12.0555C4.10234 11.9085 7.49971 8.41803 7.49971 5.03753C7.49971 2.65838 5.81727 0.723267 3.74985 0.723267ZM3.74985 7.38622C2.60115 7.38622 1.6666 6.31872 1.6666 5.0066C1.6666 3.69447 2.60115 2.62697 3.74985 2.62697C4.89856 2.62697 5.83311 3.69447 5.83311 5.0066C5.83311 6.31872 4.89856 7.38622 3.74985 7.38622Z" fill="#212121"/>
</svg>
