<svg width="13" height="13" viewBox="0 0 13 13" fill="none" xmlns="http://www.w3.org/2000/svg">
<path d="M12.5 0.5H0.5V12.5H12.5V0.5Z" fill="#D72027"/>
<path d="M7.0965 3.53746C7.0173 3.64021 6.97307 3.76686 6.97307 3.896V5.02158C6.96736 5.10685 6.93489 5.18605 6.88209 5.25384C6.85284 5.28309 6.67945 5.43899 6.66447 5.45648L6.76151 5.45933C6.79397 5.43008 7.12897 5.13325 7.16108 5.09187C7.25812 4.98591 7.31377 4.84784 7.31377 4.70407V3.62237C7.31092 3.51356 7.35194 3.40475 7.42829 3.32554C7.46932 3.28131 7.59882 3.17285 7.62237 3.14609L7.51962 3.14324C7.49893 3.16964 7.13182 3.50214 7.0965 3.53746Z" fill="white"/>
<path d="M6.26974 7.63164L6.67823 7.98733H6.95151C7.21301 7.98733 7.46595 7.88458 7.65111 7.69942C7.81879 7.53175 7.88051 7.30556 7.88051 7.094V6.50927C7.87766 6.37691 7.82164 6.25062 7.72175 6.1625C7.70427 6.14502 7.58369 6.03014 7.58369 6.03014V6.47966C7.58369 6.47966 7.71604 6.61487 7.73959 6.64127C7.86018 6.77042 7.86018 7.00588 7.47523 7.37905C7.4078 7.44363 7.21658 7.62593 6.95222 7.62593L6.26974 7.63164Z" fill="white"/>
<path d="M7.40849 5.23029C7.36425 5.27739 7.32037 5.39476 7.32037 5.50072V5.7212H7.5437C7.63182 5.7212 7.74634 5.642 7.76989 5.60061V5.38013C7.80235 5.42723 7.84338 5.47111 7.89047 5.50643C7.91402 5.47717 8.11987 5.23029 8.29004 5.22708C8.5751 5.22423 8.51052 5.58563 8.396 5.70015C8.35783 5.73832 8.19015 5.89101 8.13735 5.94132C8.00214 6.07047 7.76989 6.00875 7.76989 5.67696C7.76989 5.67696 7.52301 5.91206 7.48484 5.94453C7.44666 5.97699 7.32037 6.11221 7.32037 6.11221V6.69694C7.32037 6.97628 7.2294 7.07011 7.15269 7.15537C7.12344 7.18784 6.80877 7.47575 6.76489 7.50821L6.66215 7.51106C6.66215 7.51106 6.8473 7.34339 6.88262 7.30521C6.92365 7.26098 6.9736 7.17286 6.9736 7.02587C6.9736 6.9877 6.96789 6.109 6.96789 6.109H5.53371C5.03389 6.109 4.92829 5.55637 4.92544 5.40653V4.85106C4.92544 4.76008 4.86657 4.60703 4.7756 4.55994H4.91652C4.934 4.56565 5.02247 4.60097 5.02247 4.94203C5.02247 4.94203 5.01677 5.3359 5.01677 5.35944C5.01677 5.53283 5.15483 5.72976 5.35176 5.72976L6.97431 5.7269C6.97431 5.68267 7.01855 5.5182 7.09775 5.43008C7.14199 5.38013 7.49161 5.06262 7.52979 5.03051H7.63253C7.61791 5.04514 7.44738 5.19497 7.41206 5.23636L7.40849 5.23029ZM7.94042 5.56244C7.98145 5.61845 8.02854 5.6741 8.07849 5.72405C8.25473 5.86497 8.33714 5.71228 8.21941 5.55352C8.17231 5.48895 7.99358 5.50643 7.94042 5.56244Z" fill="white"/>
<path d="M6.20032 6.60881C6.20032 6.68801 5.95059 6.89672 5.93596 6.90849C5.91848 6.82323 5.85355 6.73225 5.66839 6.54388L5.94167 6.2706C6.12683 6.45576 6.20032 6.49715 6.20032 6.60881Z" fill="white"/>
<path d="M6.67564 3.46682C6.73166 3.52283 6.84903 3.66946 6.77839 3.74295C6.71667 3.80467 6.61963 3.90457 6.61963 3.90457C6.61393 3.86925 6.52259 3.78113 6.52259 3.78113V4.07795C6.51974 4.19854 6.4755 4.23065 6.4755 4.23065C6.4755 4.23065 6.69598 4.44827 6.69598 4.73047V5.01837C6.69883 5.07117 6.6785 5.12719 6.63997 5.16536C6.61928 5.1889 6.41664 5.39476 6.38417 5.42116C6.33708 5.46218 6.27821 5.48573 6.21649 5.48288H5.45517C5.33458 5.48288 5.21114 5.38869 5.21114 5.29486C5.21114 5.27132 5.214 5.01266 5.214 5.01266C5.25217 5.0569 5.2932 5.1097 5.38738 5.1097C5.46373 5.1097 5.54008 5.05084 5.56077 5.02729C5.58146 5.00375 6.13694 4.42758 6.13694 4.42758C6.13694 4.42758 5.87828 4.18641 5.70775 4.07189C5.62534 4.01588 5.51368 4.08651 5.49619 4.16001C5.44339 4.3894 5.49619 4.73618 5.49619 4.73618L5.28749 4.52747C5.20222 4.4422 5.20508 4.25134 5.30818 4.15144C5.32281 4.13396 5.47871 3.96343 5.67279 3.96343H5.97568C6.17832 3.96343 6.40201 4.16607 6.40201 4.16607C6.41949 4.14538 6.43126 4.12183 6.43447 4.09543C6.43447 3.98948 6.43162 3.71049 6.43162 3.71049C6.27893 3.5578 6.25823 3.39904 6.33173 3.32554C6.46979 3.18748 6.51974 3.14039 6.51974 3.14039C6.51974 3.14039 6.51403 3.30842 6.67564 3.46682ZM5.7206 4.99518C5.64425 5.07438 5.63248 5.09222 5.56184 5.1361H6.4202C6.65246 5.1361 6.60536 4.99197 6.56434 4.91848C6.47907 4.76864 6.20864 4.49215 6.20864 4.49215C6.20864 4.49215 5.73558 4.98056 5.7206 4.99518Z" fill="white"/>
<path d="M4.74269 5.77684H4.60177C4.60177 5.77684 4.75161 5.85926 4.75161 6.07367V6.75865C4.75161 7.20246 5.11907 7.6138 5.56573 7.6138H5.93891C6.16224 7.6138 6.2418 7.561 6.37701 7.44042C6.42695 7.39618 6.49153 7.32269 6.51507 7.29629C6.59142 7.20817 6.67669 7.13753 6.67669 6.90849V6.68516C6.67669 6.49108 6.56502 6.41188 6.50901 6.35587C6.47369 6.32055 6.37986 6.22957 6.37986 6.22957V6.68801C6.37986 6.68801 6.47405 6.7879 6.51507 6.82037C6.70915 6.97306 6.5561 7.23778 6.37415 7.23778H5.55432C5.25464 7.24349 4.84615 6.97627 4.84615 6.52354V6.15323C4.849 5.7772 4.74269 5.77684 4.74269 5.77684Z" fill="white"/>
<path d="M5.64163 6.61167C5.64163 6.69087 5.3919 6.89957 5.37727 6.91135C5.35979 6.82608 5.29486 6.73511 5.1097 6.54674L5.38298 6.27346C5.56529 6.45576 5.64163 6.49715 5.64163 6.61167Z" fill="white"/>
<path d="M2.77613 9.65376H2.33518C2.19711 9.65376 2.20888 9.53924 2.19426 9.4422V8.81324C2.19426 8.81324 2.2913 8.81038 2.40011 8.81038C2.52069 8.81038 2.67339 8.7929 2.82037 8.87496C2.74402 8.71334 2.5792 8.61345 2.40011 8.61916H2.19747V8.41652C2.19747 8.41652 2.19747 8.24028 2.15323 8.19033H2.44435C2.69408 8.19033 2.88816 8.18748 3.0908 8.31948C3.0908 8.31948 3.05262 7.98734 2.56778 7.98734H1.6213C1.6213 7.98734 1.78577 8.12826 1.78006 8.41366L1.78577 9.55994C1.78577 9.84784 1.90029 9.85676 1.90029 9.85676H2.83214C3.0437 9.85676 3.1172 9.70692 3.1172 9.62451L3.12005 9.5157C3.12005 9.5157 3.05262 9.65376 2.77613 9.65376Z" fill="white"/>
<path d="M5.25669 9.55673V8.75437C5.25669 8.44292 5.0041 8.36051 4.81288 8.36051C4.56315 8.36051 4.4868 8.56921 4.45433 8.6427C4.39832 8.44863 4.20175 8.36051 4.04299 8.36051C3.7401 8.36051 3.66375 8.64841 3.66375 8.64841C3.66375 8.64841 3.65805 8.36907 3.41402 8.36907H3.17606C3.17606 8.36907 3.31413 8.42508 3.31413 8.66589V9.55637C3.31413 9.85034 3.43186 9.85605 3.43186 9.85605H3.82572C3.73154 9.78541 3.67588 9.67374 3.67588 9.55316V8.76258C3.68159 8.72726 3.74046 8.60988 3.90813 8.60988C4.00517 8.60988 4.11077 8.70978 4.10792 8.82144V9.55637C4.10792 9.85319 4.22565 9.85605 4.22565 9.85605H4.61952C4.52533 9.78255 4.46968 9.67374 4.46968 9.55316V8.76258C4.50785 8.64806 4.63129 8.58313 4.74902 8.62166C4.83714 8.65091 4.89886 8.73047 4.90171 8.8243V9.55601C4.90457 9.85569 5.01944 9.85284 5.01944 9.85284H5.41331C5.31627 9.7822 5.26061 9.67339 5.2574 9.55601L5.25669 9.55673Z" fill="white"/>
<path d="M5.94534 9.55673C5.94534 9.67446 6.00135 9.78612 6.09518 9.8564H5.70131C5.70131 9.8564 5.58073 9.85926 5.58073 9.55958V8.66304C5.58073 8.42794 5.44552 8.36622 5.44552 8.36622H5.68348C5.76874 8.36622 5.94213 8.36622 5.94213 8.69836V9.55066L5.94534 9.55673Z" fill="white"/>
<path d="M7.15574 8.48109C7.15574 8.48109 7.11757 8.37513 6.95596 8.37513C6.70908 8.37513 6.65021 8.6691 6.65021 8.6691C6.62952 8.43685 6.5678 8.36942 6.39441 8.36942H6.15646C6.15646 8.36942 6.29452 8.42543 6.29452 8.66624V9.55672C6.29452 9.85069 6.41225 9.8564 6.41225 9.8564H6.80612C6.71193 9.78576 6.65628 9.67409 6.65628 9.55672V8.825C6.6652 8.76328 6.70052 8.70727 6.75332 8.67516C6.88567 8.58704 7.05906 8.61344 7.16181 8.73403L7.15574 8.48109Z" fill="white"/>
<path d="M8.98572 8.53389C9.06813 8.53389 9.14733 8.55458 9.21797 8.59275V8.36942H8.88868V8.02836C8.81804 8.14002 8.72707 8.23991 8.62432 8.32518C8.51265 8.41615 8.27755 8.53103 8.27755 8.53103L8.52728 8.53389V9.56849C8.52728 9.8564 8.64787 9.8564 8.64787 9.8564H9.03888C8.94469 9.78897 8.88904 9.68016 8.88618 9.56528V8.53353C8.99214 8.53353 8.92114 8.53389 8.98572 8.53389Z" fill="white"/>
<path d="M10.1791 8.9834C9.95864 9.2128 9.78525 9.17748 9.64718 9.34801C9.64718 9.34801 9.67073 9.57741 9.84411 9.65661C9.90298 9.68301 10.147 9.77113 10.3026 9.50071V9.74188C10.3026 9.74188 10.2027 9.85961 9.88229 9.85961C9.49734 9.85961 9.23263 9.55672 9.23263 9.14537C9.23263 8.73403 9.44704 8.36657 9.85589 8.36371C10.2526 8.358 10.4702 8.68087 10.1791 8.9834ZM9.93794 8.88922C10.0025 8.76863 10.0557 8.46289 9.83198 8.48073C9.57333 8.50142 9.62328 9.18604 9.62328 9.18604C9.70855 9.09186 9.83805 9.07152 9.93794 8.88922Z" fill="white"/>
<path d="M5.76259 8.24884C5.86248 8.24598 5.93883 8.16357 5.93883 8.06653C5.93597 7.96664 5.85356 7.89029 5.75652 7.89029C5.65948 7.89315 5.58028 7.97271 5.58028 8.06974C5.58028 8.16678 5.66269 8.24884 5.76259 8.24884Z" fill="white"/>
<path d="M7.56458 9.68588C7.47646 9.68588 7.41189 9.59169 7.41189 9.49786C7.41189 9.12755 7.71478 9.07475 7.79683 8.97771V9.60382C7.75866 9.63307 7.72334 9.68588 7.56458 9.68588ZM7.79683 8.83357C7.70586 8.99233 6.99448 9.02765 7.10329 9.57706C7.14753 9.79469 7.2913 9.85926 7.47361 9.85926C7.65591 9.85926 7.75866 9.76829 7.8029 9.67981C7.8293 9.84428 7.91456 9.85605 7.91456 9.85605H8.30843C8.21424 9.78541 8.15573 9.6766 8.15573 9.55923V8.72155C8.15573 8.52177 7.93526 8.36586 7.70015 8.36586C7.56779 8.36301 7.4415 8.40118 7.33269 8.47467V8.73333C7.33269 8.73333 7.4151 8.52747 7.61774 8.52747C7.82038 8.52747 7.83215 8.62737 7.83215 8.67731C7.83501 8.73011 7.82644 8.78648 7.79683 8.83357Z" fill="white"/>
<path d="M11.0498 9.45077C11.0526 9.55673 10.9588 9.69479 10.7587 9.69479C10.5585 9.69479 10.4707 9.48609 10.4707 9.48609V9.75045C10.5824 9.82109 10.7119 9.85641 10.8439 9.85641C11.1115 9.85641 11.3848 9.65376 11.3787 9.36836C11.3758 9.27417 11.3434 9.1832 11.2877 9.1097C11.1968 8.98912 11.0319 8.90385 10.9028 8.82465C10.8293 8.78041 10.7911 8.69836 10.7911 8.67196C10.7883 8.62201 10.8147 8.52212 11.0116 8.52212C11.2085 8.52212 11.2909 8.72797 11.2909 8.72797V8.47824C11.1821 8.40189 11.0498 8.36051 10.9149 8.36051C10.6798 8.36051 10.4654 8.51641 10.4711 8.7162C10.474 8.89244 10.5475 9.0041 10.6916 9.11292C10.7562 9.16001 10.8239 9.20104 10.8942 9.23921C11.0059 9.30093 11.0466 9.37727 11.0498 9.45077Z" fill="white"/>
</svg>
