<svg width="8" height="10" viewBox="0 0 8 10" fill="none" xmlns="http://www.w3.org/2000/svg">
<path d="M7.35806 6.11092C6.86827 6.11092 6.38736 6.02342 5.93163 5.85139C5.70832 5.76439 5.4338 5.84421 5.29751 6.0041L4.39799 6.77975C3.3548 6.14367 2.71222 5.40991 2.16297 4.22726L2.82203 3.22654C2.99326 3.03121 3.05468 2.74588 2.9811 2.47816C2.82985 1.95486 2.75301 1.40579 2.75301 0.84608C2.75303 0.441742 2.46506 0.112793 2.1111 0.112793H0.641936C0.287978 0.112793 0 0.441742 0 0.846056C0 5.48056 3.30078 9.25092 7.35806 9.25092C7.71202 9.25092 8 8.92197 8 8.51765V6.84416C7.99998 6.43987 7.712 6.11092 7.35806 6.11092Z" fill="black"/>
</svg>
