<svg width="13" height="12" viewBox="0 0 13 12" fill="none" xmlns="http://www.w3.org/2000/svg">
<path fill-rule="evenodd" clip-rule="evenodd" d="M2.375 1.625C2.20924 1.625 2.05027 1.69085 1.93306 1.80806C1.81585 1.92527 1.75 2.08424 1.75 2.25V9.75C1.75 9.91576 1.81585 10.0747 1.93306 10.1919C2.05027 10.3092 2.20924 10.375 2.375 10.375H9.875C10.0408 10.375 10.1997 10.3092 10.3169 10.1919C10.4342 10.0747 10.5 9.91576 10.5 9.75V6C10.5 5.83424 10.5658 5.67527 10.6831 5.55806C10.8003 5.44085 10.9592 5.375 11.125 5.375C11.2908 5.375 11.4497 5.44085 11.5669 5.55806C11.6842 5.67527 11.75 5.83424 11.75 6V9.75C11.75 10.2473 11.5525 10.7242 11.2008 11.0758C10.8492 11.4275 10.3723 11.625 9.875 11.625H2.375C1.87772 11.625 1.40081 11.4275 1.04917 11.0758C0.697544 10.7242 0.5 10.2473 0.5 9.75V2.25C0.5 1.75272 0.697544 1.27581 1.04917 0.924175C1.40081 0.572544 1.87772 0.375 2.375 0.375H8.625C8.79076 0.375 8.94973 0.440848 9.06694 0.558058C9.18415 0.675268 9.25 0.83424 9.25 1C9.25 1.16576 9.18415 1.32473 9.06694 1.44194C8.94973 1.55915 8.79076 1.625 8.625 1.625H2.375ZM11.3081 1.18313C11.3658 1.12343 11.4347 1.07582 11.511 1.04306C11.5872 1.01031 11.6693 0.993065 11.7522 0.992343C11.8352 0.991622 11.9175 1.00744 11.9943 1.03886C12.0712 1.07029 12.1409 1.1167 12.1996 1.17538C12.2583 1.23406 12.3047 1.30384 12.3361 1.38065C12.3676 1.45746 12.3834 1.53976 12.3827 1.62275C12.3819 1.70574 12.3647 1.78775 12.3319 1.864C12.2992 1.94026 12.2516 2.00922 12.1919 2.06687L6.56687 7.69187C6.44967 7.80904 6.29073 7.87487 6.125 7.87487C5.95927 7.87487 5.80033 7.80904 5.68313 7.69187L3.80813 5.81687C3.74843 5.75922 3.70082 5.69026 3.66806 5.614C3.63531 5.53775 3.61806 5.45574 3.61734 5.37275C3.61662 5.28976 3.63244 5.20746 3.66386 5.13065C3.69529 5.05384 3.7417 4.98406 3.80038 4.92538C3.85906 4.8667 3.92884 4.82029 4.00565 4.78886C4.08246 4.75744 4.16476 4.74162 4.24775 4.74234C4.33074 4.74306 4.41275 4.76031 4.489 4.79306C4.56526 4.82582 4.63422 4.87343 4.69187 4.93313L6.125 6.36625L11.3081 1.18313Z" fill="#393939"/>
</svg>
