<svg width="17" height="14" viewBox="0 0 17 14" fill="none" xmlns="http://www.w3.org/2000/svg">
<path d="M0.625 3.25H15.625V1.375C15.625 1.20929 15.5591 1.05029 15.4419 0.933105C15.3247 0.815918 15.1658 0.75 15 0.75H1.25C1.08424 0.75 0.925264 0.815918 0.808058 0.933105C0.690851 1.05029 0.625 1.20929 0.625 1.375V3.25Z" fill="black" fill-opacity="0.1"/>
<path fill-rule="evenodd" clip-rule="evenodd" d="M0 1.375C0 1.375 0 0.857233 0.366117 0.491117C0.366117 0.491117 0.732233 0.125 1.25 0.125H15C15 0.125 15.5178 0.125 15.8839 0.491117C15.8839 0.491117 16.25 0.857232 16.25 1.375V12.625C16.25 12.625 16.25 13.1428 15.8839 13.5089C15.8839 13.5089 15.5178 13.875 15 13.875H1.25C1.25 13.875 0.732232 13.875 0.366116 13.5089C0.366116 13.5089 0 13.1428 0 12.625V1.375ZM1.25 1.375V12.625H15V1.375H1.25Z" fill="#212121"/>
<path d="M0.625 3.875H15.625C15.9702 3.875 16.25 3.59518 16.25 3.25C16.25 2.90482 15.9702 2.625 15.625 2.625H0.625C0.279822 2.625 0 2.90482 0 3.25C0 3.59518 0.279822 3.875 0.625 3.875Z" fill="#212121"/>
<path d="M6.35723 7.51777C5.625 6.78553 5.625 5.75 5.625 5.75C5.625 5.40482 5.34518 5.125 5 5.125C4.65482 5.125 4.375 5.40482 4.375 5.75C4.375 7.3033 5.47335 8.40165 5.47335 8.40165C6.5717 9.5 8.125 9.5 8.125 9.5C9.6783 9.5 10.7767 8.40165 10.7767 8.40165C11.875 7.3033 11.875 5.75 11.875 5.75C11.875 5.40482 11.5952 5.125 11.25 5.125C10.9048 5.125 10.625 5.40482 10.625 5.75C10.625 6.78553 9.89277 7.51777 9.89277 7.51777C9.16053 8.25 8.125 8.25 8.125 8.25C7.08947 8.25 6.35723 7.51777 6.35723 7.51777Z" fill="#212121"/>
</svg>
