<svg width="26" height="26" viewBox="0 0 26 26" fill="none" xmlns="http://www.w3.org/2000/svg">
<g clip-path="url(#clip0_134_2793)" filter="url(#filter0_d_134_2793)">
<path d="M18.25 9.03459C17.8352 9.03459 17.5 9.37065 17.5 9.78455V15.7846C17.5 16.1978 17.1639 16.5345 16.75 16.5345H6.25C5.83597 16.5345 5.50005 16.1978 5.50005 15.7846V5.28455C5.50005 4.87132 5.83597 4.53459 6.25 4.53459H12.25C12.6648 4.53459 13 4.19857 13 3.78464C13 3.3706 12.6648 3.03455 12.25 3.03455H6.25C5.00951 3.03455 4 4.04406 4 5.28455V15.7846C4 17.0251 5.00951 18.0346 6.25 18.0346H16.75C17.9905 18.0346 19 17.0251 19 15.7846V9.78455C19 9.36984 18.6647 9.03459 18.25 9.03459Z" fill="white"/>
<path d="M11.0319 8.35132C10.9798 8.40369 10.9441 8.47013 10.9292 8.5425L10.399 11.1946C10.3743 11.3175 10.4133 11.4443 10.5017 11.5335C10.5366 11.5683 10.578 11.5959 10.6236 11.6147C10.6692 11.6335 10.718 11.6431 10.7673 11.643C10.7912 11.643 10.8161 11.6408 10.8408 11.6356L13.492 11.1054C13.5655 11.0902 13.6322 11.0551 13.684 11.0025L19.6181 5.06847L16.9667 2.41734L11.0319 8.35132ZM21.451 0.58362C20.7198 -0.147665 19.5303 -0.147665 18.7997 0.58362L17.7617 1.62154L20.413 4.27281L21.451 3.23475C21.805 2.88154 22 2.41048 22 1.9095C22 1.40853 21.805 0.937503 21.451 0.58362Z" fill="white"/>
</g>
<defs>
<filter id="filter0_d_134_2793" x="0" y="0" width="26" height="26" filterUnits="userSpaceOnUse" color-interpolation-filters="sRGB">
<feFlood flood-opacity="0" result="BackgroundImageFix"/>
<feColorMatrix in="SourceAlpha" type="matrix" values="0 0 0 0 0 0 0 0 0 0 0 0 0 0 0 0 0 0 127 0" result="hardAlpha"/>
<feOffset dy="4"/>
<feGaussianBlur stdDeviation="2"/>
<feComposite in2="hardAlpha" operator="out"/>
<feColorMatrix type="matrix" values="0 0 0 0 0 0 0 0 0 0 0 0 0 0 0 0 0 0 0.25 0"/>
<feBlend mode="normal" in2="BackgroundImageFix" result="effect1_dropShadow_134_2793"/>
<feBlend mode="normal" in="SourceGraphic" in2="effect1_dropShadow_134_2793" result="shape"/>
</filter>
<clipPath id="clip0_134_2793">
<rect width="18" height="18" fill="white" transform="translate(4)"/>
</clipPath>
</defs>
</svg>
