<svg width="200" height="51" viewBox="0 0 200 51" fill="none" xmlns="http://www.w3.org/2000/svg">
<g clip-path="url(#clip0_54_15)">
<path d="M52.0155 11.827C59.6319 11.827 65.2661 16.9623 65.2661 24.8647C65.2661 31.2949 61.0754 37.8115 52.0155 37.8115C44.2195 37.8115 38.7206 32.7672 38.7206 24.8647C38.7206 16.9623 44.2195 11.827 52.0155 11.827ZM52.0155 17.541C47.5078 17.541 45.4812 21.1131 45.4812 24.8625C45.4812 28.6119 47.51 32.0953 52.0155 32.0953C56.5211 32.0953 58.5056 28.5233 58.5056 24.8625C58.5056 21.2018 56.4767 17.541 52.0155 17.541Z" fill="#212121"/>
<path d="M92.5344 12.541V37.3193C92.5344 44.3282 88.7938 50.49 79.3747 50.49C73.1996 50.49 69.2794 47.8559 67.1619 44.7317L71.8936 41.1596C72.9756 42.4989 75.3193 44.8647 78.9246 44.8647C82.306 44.8647 85.9557 42.5876 85.9557 36.6497V33.1663C84.3792 35.1752 81.8537 36.6031 78.0244 36.6031C70.7229 36.6031 66.3969 31.4235 66.3969 24.2816C66.3969 17.1397 70.7229 11.8248 77.8891 11.8248C81.8093 11.8248 84.5588 13.4324 86.3171 15.9313L87.3082 12.5388H92.5366L92.5344 12.541ZM85.9534 24.3282C85.9534 20.3991 83.4745 17.6319 79.4634 17.6319C75.4523 17.6319 72.9734 20.3991 72.9734 24.3282C72.9734 28.2572 75.5433 31.0244 79.4634 31.0244C83.3836 31.0244 85.9534 28.3459 85.9534 24.3282Z" fill="#212121"/>
<path d="M94.9246 24.7738C94.9246 17.674 99.0266 11.827 107.319 11.827C115.612 11.827 119.758 17.5853 118.317 26.7827H101.867C102.364 30.1308 104.302 32.5876 108.086 32.5876C111.016 32.5876 113.539 31.5166 115.703 30.0865L118.408 34.5964C115.523 36.6053 112.503 37.8115 108.086 37.8115C100.109 37.8115 94.9268 32.6319 94.9268 24.7738H94.9246ZM101.865 22.8536H112.681C112.772 19.9512 111.51 16.7383 107.452 16.7383C103.395 16.7383 101.865 20.2217 101.865 22.8536Z" fill="#212121"/>
<path d="M145.087 22.0045V37.0954H138.282L138.326 23.0754C138.326 19.9047 137.379 17.9867 134.541 17.9867C132.603 17.9867 130.395 19.459 128.412 22.0045V37.0954H121.652V12.5388H126.925L128.051 15.9313C129.809 13.8781 132.468 11.8692 136.118 11.8692C140.94 11.8692 145.087 14.3237 145.087 22.0045Z" fill="#212121"/>
<path d="M147.477 24.8625C147.477 16.7805 152.885 11.8248 160.636 11.8248C165.503 11.8248 169.244 13.8337 171.543 16.9601L166.856 20.1308C165.594 18.5233 163.521 17.4523 160.863 17.4523C156.49 17.4523 153.967 20.5787 153.967 24.8647C153.967 29.1508 156.49 32.1862 160.772 32.1862C163.565 32.1862 165.73 30.9357 166.856 29.5078L171.543 32.6785C169.47 35.5366 165.956 37.8137 160.636 37.8137C152.885 37.8137 147.477 32.8581 147.477 24.867V24.8625Z" fill="#212121"/>
<path d="M194.619 12.541L185.244 39.9535C183.08 46.7406 179.971 51.1153 170.911 48.8382L171.361 42.5876C177.04 44.8648 177.896 41.7384 179.563 37.0954L170.82 12.5388H177.581L182.854 29.6829L188.038 12.5388H194.619V12.541Z" fill="#212121"/>
<path d="M194.845 29.4169C197.188 29.4169 198.812 31.1131 198.812 33.5699C198.812 35.8027 197.279 37.8115 194.845 37.8115C192.41 37.8115 190.878 36.0266 190.878 33.5699C190.878 31.1131 192.41 29.4169 194.845 29.4169Z" fill="#212121"/>
<path d="M32.3104 16.6453C32.3016 16.5499 32.2905 16.4568 32.2816 16.3615C32.3016 16.4524 32.3127 16.5477 32.3104 16.6453Z" fill="#24EA28"/>
<path d="M36.827 18.541V27.2505C36.827 27.5543 36.7051 27.8425 36.4944 28.0532L30.4279 34.1219C29.6896 34.8603 28.4301 34.337 28.4301 33.2949V26.8847C28.4301 26.6984 28.3836 26.5277 28.3082 26.3703C28.1264 26.0022 27.7472 25.7494 27.3015 25.7494H20.7273C19.714 25.7494 19.2062 24.5255 19.9246 23.8115L25.8714 17.7073C26.082 17.4966 26.357 17.3791 26.6563 17.3747H35.6585C36.306 17.3747 36.8293 17.898 36.8293 18.5454L36.827 18.541Z" fill="#24EA28"/>
<path d="M35.6763 10.9335C34.7428 8.84035 33.4346 6.95565 31.8337 5.35476C28.204 1.72505 23.0798 -0.414637 17.4678 -0.0620876C8.20619 0.521061 0.69178 8.03326 0.0975451 17.2949C-0.261657 22.9157 1.88025 28.0466 5.51218 31.6807C8.62526 34.7938 12.8315 36.8071 17.51 37.0931C17.5676 37.0976 17.623 37.0931 17.6763 37.0887V37.0953H22.6031C23.1286 37.0953 23.5565 36.6674 23.5565 36.1419V30.4324C23.5565 29.9047 23.1286 29.4789 22.6031 29.4789H17.6763C11.8692 28.9557 7.34588 23.9024 7.68069 17.8914C8.00442 12.0909 12.949 7.45898 18.7583 7.50554C22.3503 7.53437 25.5388 9.29268 27.5321 11.9823C27.7428 12.2661 28.0643 12.4412 28.4168 12.4412H34.6718C35.4501 12.4412 35.9911 11.6408 35.674 10.929L35.6763 10.9335Z" fill="#24EA28"/>
</g>
<defs>
<clipPath id="clip0_54_15">
<rect width="200" height="50.5543" fill="white"/>
</clipPath>
</defs>
</svg>
