<svg width="22" height="23" viewBox="0 0 22 23" fill="none" xmlns="http://www.w3.org/2000/svg">
<path fill-rule="evenodd" clip-rule="evenodd" d="M5.7619 1.18896C3.14512 1.18896 1.0238 3.31028 1.0238 5.92706V16.4033C1.0238 19.02 3.14512 21.1413 5.7619 21.1413H16.2381C18.8549 21.1413 20.9762 19.02 20.9762 16.4033V5.92706C20.9762 3.31028 18.8549 1.18896 16.2381 1.18896H5.7619ZM0.0238037 5.92706C0.0238037 2.758 2.59284 0.188965 5.7619 0.188965H16.2381C19.4072 0.188965 21.9762 2.758 21.9762 5.92706V16.4033C21.9762 19.5723 19.4072 22.1413 16.2381 22.1413H5.7619C2.59284 22.1413 0.0238037 19.5723 0.0238037 16.4033V5.92706ZM11.5866 7.46908C10.8188 7.35521 10.0346 7.48637 9.34559 7.84388C8.65658 8.2014 8.09785 8.76707 7.74886 9.46043C7.39986 10.1538 7.27839 10.9396 7.40171 11.7059C7.52503 12.4723 7.88687 13.1803 8.43576 13.7292C8.98464 14.2781 9.69263 14.6399 10.459 14.7632C11.2254 14.8866 12.0112 14.7651 12.7045 14.4161C13.3979 14.0671 13.9636 13.5084 14.3211 12.8194C14.6786 12.1303 14.8097 11.3461 14.6959 10.5783C14.5797 9.79507 14.2148 9.06996 13.6549 8.51007C13.095 7.95019 12.3699 7.58522 11.5866 7.46908ZM8.88502 6.95626C9.76073 6.50187 10.7574 6.33518 11.7333 6.47989C12.7288 6.62751 13.6504 7.09137 14.362 7.80297C15.0736 8.51456 15.5374 9.43616 15.6851 10.4316C15.8298 11.4075 15.6631 12.4042 15.2087 13.2799C14.7543 14.1556 14.0354 14.8658 13.1541 15.3093C12.2729 15.7529 11.2742 15.9073 10.3001 15.7505C9.32609 15.5938 8.42627 15.1339 7.72865 14.4363C7.03103 13.7387 6.57115 12.8389 6.41441 11.8648C6.25767 10.8908 6.41206 9.89209 6.85562 9.01084C7.29918 8.1296 8.00931 7.41065 8.88502 6.95626ZM16.7619 4.90325C16.4858 4.90325 16.2619 5.12711 16.2619 5.40325C16.2619 5.67939 16.4858 5.90325 16.7619 5.90325H16.7719C17.048 5.90325 17.2719 5.67939 17.2719 5.40325C17.2719 5.12711 17.048 4.90325 16.7719 4.90325H16.7619Z" fill="white"/>
</svg>
