<svg width="26" height="25" viewBox="0 0 26 25" fill="none" xmlns="http://www.w3.org/2000/svg">
<path d="M0.000630217 12.2431C0.120482 11.8118 0.283856 11.4057 0.613763 11.0909C1.0345 10.6899 1.53283 10.5251 2.10496 10.527C4.32032 10.5341 6.5363 10.527 8.75166 10.5348C8.95288 10.5354 9.06516 10.471 9.17114 10.2972C11.2193 6.94166 13.2751 3.59124 15.322 0.235026C15.4293 0.0592985 15.5422 -0.00249582 15.7415 7.9079e-05C16.4959 0.0116662 17.2504 0.0045841 18.049 0.00458403C16.9741 3.51593 15.9074 7.00024 14.8325 10.5129C14.9486 10.52 15.0287 10.5283 15.1088 10.5283C17.2989 10.529 19.4897 10.527 21.6798 10.5322C21.847 10.5322 21.9548 10.4852 22.0564 10.3442C22.6033 9.58595 23.1634 8.83734 23.7116 8.07971C23.8113 7.94196 23.916 7.88339 24.0869 7.8866C24.6395 7.89755 25.1927 7.89047 25.7787 7.89047C25.7201 8.11254 25.6721 8.30758 25.6179 8.50133C25.2665 9.75911 24.9108 11.0156 24.567 12.2753C24.5291 12.4137 24.5291 12.5817 24.567 12.7207C24.9391 14.0879 25.3239 15.4519 25.7043 16.8166C25.727 16.8977 25.7478 16.9788 25.7812 17.1062C25.5119 17.1062 25.2646 17.1062 25.018 17.1062C24.6988 17.1062 24.379 17.121 24.0617 17.0985C23.9475 17.0901 23.8024 17.0225 23.7343 16.9324C23.1609 16.1735 22.6052 15.3998 22.0331 14.6396C21.9687 14.554 21.8331 14.4767 21.7296 14.4761C19.5055 14.4671 17.2819 14.469 15.0577 14.4697C14.994 14.4697 14.9303 14.4812 14.8332 14.4909C15.9068 17.9958 16.9722 21.4756 18.0496 24.9953C17.8231 24.9953 17.6257 24.9953 17.4283 24.9953C16.8574 24.9953 16.2865 24.9876 15.7163 24.9998C15.5346 25.0037 15.4337 24.9445 15.3372 24.7861C13.2883 21.4312 11.2319 18.0808 9.18438 14.7252C9.06769 14.534 8.94784 14.4645 8.72643 14.4651C6.61137 14.4748 4.49631 14.4362 2.38188 14.4838C1.13417 14.5115 0.291427 13.9502 -1.07028e-06 12.7574L0.000630217 12.2431Z" fill="#27AE60"/>
</svg>
