<svg width="14" height="26" viewBox="0 0 14 26" fill="none" xmlns="http://www.w3.org/2000/svg">
<path d="M3.45 24.7188H1.77656C1.67296 24.7188 1.57361 24.7599 1.50035 24.8332C1.42709 24.9064 1.38594 25.0058 1.38594 25.1094C1.38594 25.213 1.42709 25.3123 1.50035 25.3856C1.57361 25.4588 1.67296 25.5 1.77656 25.5H3.45C3.5536 25.5 3.65296 25.4588 3.72621 25.3856C3.79947 25.3123 3.84063 25.213 3.84063 25.1094C3.84063 25.0058 3.79947 24.9064 3.72621 24.8332C3.65296 24.7599 3.5536 24.7188 3.45 24.7188ZM11.2443 24.7188H9.57083C9.46723 24.7188 9.36788 24.7599 9.29462 24.8332C9.22136 24.9064 9.18021 25.0058 9.18021 25.1094C9.18021 25.213 9.22136 25.3123 9.29462 25.3856C9.36788 25.4588 9.46723 25.5 9.57083 25.5H11.2443C11.3479 25.5 11.4472 25.4588 11.5205 25.3856C11.5937 25.3123 11.6349 25.213 11.6349 25.1094C11.6349 25.0058 11.5937 24.9064 11.5205 24.8332C11.4472 24.7599 11.3479 24.7188 11.2443 24.7188ZM11.901 7.13542H1.11979C0.823746 7.13555 0.539789 7.25286 0.329966 7.4617C0.120143 7.67055 0.00151392 7.95396 0 8.25V22.9375C0.000413359 23.2344 0.118524 23.5189 0.328436 23.7289C0.538348 23.9388 0.822931 24.0569 1.11979 24.0573H11.901C12.1979 24.0569 12.4825 23.9388 12.6924 23.7289C12.9023 23.5189 13.0204 23.2344 13.0208 22.9375V8.25C13.0193 7.95396 12.9007 7.67055 12.6909 7.4617C12.481 7.25286 12.1971 7.13555 11.901 7.13542ZM3.00417 22.7917C3.00417 22.8953 2.96301 22.9946 2.88976 23.0679C2.8165 23.1411 2.71714 23.1823 2.61354 23.1823C2.50994 23.1823 2.41058 23.1411 2.33733 23.0679C2.26407 22.9946 2.22292 22.8953 2.22292 22.7917V13C2.22292 12.8964 2.26407 12.797 2.33733 12.7238C2.41058 12.6505 2.50994 12.6094 2.61354 12.6094C2.71714 12.6094 2.8165 12.6505 2.88976 12.7238C2.96301 12.797 3.00417 12.8964 3.00417 13V22.7917ZM3.00417 11.6255C3.00417 11.7291 2.96301 11.8285 2.88976 11.9017C2.8165 11.975 2.71714 12.0161 2.61354 12.0161C2.50994 12.0161 2.41058 11.975 2.33733 11.9017C2.26407 11.8285 2.22292 11.7291 2.22292 11.6255V8.36458C2.22292 8.26098 2.26407 8.16163 2.33733 8.08837C2.41058 8.01511 2.50994 7.97396 2.61354 7.97396C2.71714 7.97396 2.8165 8.01511 2.88976 8.08837C2.96301 8.16163 3.00417 8.26098 3.00417 8.36458V11.6255ZM5.60208 22.7917C5.60208 22.8953 5.56093 22.9946 5.48767 23.0679C5.41442 23.1411 5.31506 23.1823 5.21146 23.1823C5.10786 23.1823 5.0085 23.1411 4.93525 23.0679C4.86199 22.9946 4.82083 22.8953 4.82083 22.7917V20.1109C4.82083 20.0073 4.86199 19.908 4.93525 19.8347C5.0085 19.7615 5.10786 19.7203 5.21146 19.7203C5.31506 19.7203 5.41442 19.7615 5.48767 19.8347C5.56093 19.908 5.60208 20.0073 5.60208 20.1109V22.7917ZM5.60208 18.787C5.60208 18.8906 5.56093 18.9899 5.48767 19.0632C5.41442 19.1364 5.31506 19.1776 5.21146 19.1776C5.10786 19.1776 5.0085 19.1364 4.93525 19.0632C4.86199 18.9899 4.82083 18.8906 4.82083 18.787V8.36458C4.82083 8.26098 4.86199 8.16163 4.93525 8.08837C5.0085 8.01511 5.10786 7.97396 5.21146 7.97396C5.31506 7.97396 5.41442 8.01511 5.48767 8.08837C5.56093 8.16163 5.60208 8.26098 5.60208 8.36458V18.787ZM8.2 22.7917C8.2 22.8953 8.15885 22.9946 8.08559 23.0679C8.01233 23.1411 7.91298 23.1823 7.80938 23.1823C7.70578 23.1823 7.60642 23.1411 7.53316 23.0679C7.45991 22.9946 7.41875 22.8953 7.41875 22.7917V8.36458C7.41875 8.26098 7.45991 8.16163 7.53316 8.08837C7.60642 8.01511 7.70578 7.97396 7.80938 7.97396C7.91298 7.97396 8.01233 8.01511 8.08559 8.08837C8.15885 8.16163 8.2 8.26098 8.2 8.36458V22.7917ZM10.7979 22.7917C10.7979 22.8953 10.7568 22.9946 10.6835 23.0679C10.6102 23.1411 10.5109 23.1823 10.4073 23.1823C10.3037 23.1823 10.2043 23.1411 10.1311 23.0679C10.0578 22.9946 10.0167 22.8953 10.0167 22.7917V17.3896C10.0167 17.286 10.0578 17.1866 10.1311 17.1134C10.2043 17.0401 10.3037 16.999 10.4073 16.999C10.5109 16.999 10.6102 17.0401 10.6835 17.1134C10.7568 17.1866 10.7979 17.286 10.7979 17.3896V22.7917ZM10.7979 16.0578C10.7979 16.1614 10.7568 16.2608 10.6835 16.334C10.6102 16.4073 10.5109 16.4484 10.4073 16.4484C10.3037 16.4484 10.2043 16.4073 10.1311 16.334C10.0578 16.2608 10.0167 16.1614 10.0167 16.0578V8.36458C10.0167 8.26098 10.0578 8.16163 10.1311 8.08837C10.2043 8.01511 10.3037 7.97396 10.4073 7.97396C10.5109 7.97396 10.6102 8.01511 10.6835 8.08837C10.7568 8.16163 10.7979 8.26098 10.7979 8.36458V16.0578ZM5.45365 2.40156H7.56719V6.35417H8.34844V0.890625C8.34844 0.787025 8.30728 0.687668 8.23403 0.614411C8.16077 0.541155 8.06141 0.5 7.95781 0.5H5.06302C4.95942 0.5 4.86006 0.541155 4.78681 0.614411C4.71355 0.687668 4.6724 0.787025 4.6724 0.890625V6.35417H5.45365V2.40156ZM5.45365 1.28125H7.56719V1.62031H5.45365V1.28125Z" fill="#393939"/>
</svg>
