<svg width="24" height="25" viewBox="0 0 24 25" fill="none" xmlns="http://www.w3.org/2000/svg">
<path d="M23 3.16484C22.0424 3.84032 20.9821 4.35695 19.86 4.69484C19.2577 4.00235 18.4573 3.51153 17.567 3.28877C16.6767 3.066 15.7395 3.12204 14.8821 3.44929C14.0247 3.77655 13.2884 4.35924 12.773 5.11856C12.2575 5.87787 11.9877 6.77718 12 7.69484V8.69484C10.2426 8.74041 8.50127 8.35065 6.93101 7.56029C5.36074 6.76992 4.01032 5.60348 3 4.16484C3 4.16484 -1 13.1648 8 17.1648C5.94053 18.5628 3.48716 19.2638 1 19.1648C10 24.1648 21 19.1648 21 7.66484C20.9991 7.38629 20.9723 7.10844 20.92 6.83484C21.9406 5.82833 22.6608 4.55755 23 3.16484V3.16484Z" stroke="white" stroke-linecap="round" stroke-linejoin="round"/>
</svg>
