<svg width="23" height="23" viewBox="0 0 23 23" fill="none" xmlns="http://www.w3.org/2000/svg">
<path d="M4.38295 22.0416H6.99273C7.40266 22.0416 7.7352 21.7328 7.7352 21.3228C7.7352 20.9129 7.4029 20.6041 6.99273 20.6041H4.38295C3.28422 20.6041 2.39584 19.629 2.39584 18.4883V7.90617H20.3646V10.6091C20.3646 11.0191 20.7932 11.3516 21.2031 11.3516C21.6131 11.3516 22.0417 11.0193 22.0417 10.6091V4.52661C22.0417 2.59245 20.224 0.958252 18.3104 0.958252H4.38295C2.46556 0.958252 0.958344 2.55891 0.958344 4.52661V18.4883C0.958344 20.4476 2.46556 22.0416 4.38295 22.0416ZM2.39584 4.52661C2.39584 3.39721 3.30291 2.39575 4.38295 2.39575H18.3104C19.419 2.39575 20.3646 3.39721 20.3646 4.52661V6.46867H2.39584V4.52661Z" fill="#212121"/>
<path d="M17.8315 3.83325H17.5346C17.1247 3.83325 16.7922 4.26187 16.7922 4.67179C16.7922 5.08172 17.1245 5.51034 17.5346 5.51034H17.8315C18.2414 5.51034 18.5739 5.08172 18.5739 4.67179C18.5739 4.26187 18.2414 3.83325 17.8315 3.83325ZM15.3075 3.83325H15.0106C14.6007 3.83325 14.2681 4.26187 14.2681 4.67179C14.2681 5.08172 14.6004 5.51034 15.0106 5.51034H15.3075C15.7174 5.51034 16.0499 5.08172 16.0499 4.67179C16.0499 4.26187 15.7174 3.83325 15.3075 3.83325ZM12.6349 3.83325H12.3381C11.9281 3.83325 11.5956 4.26187 11.5956 4.67179C11.5956 5.08172 11.9279 5.51034 12.3381 5.51034H12.6349C13.0448 5.51034 13.3774 5.08172 13.3774 4.67179C13.3774 4.26187 13.0448 3.83325 12.6349 3.83325ZM14.6139 11.2927C11.3584 11.2927 8.38542 13.337 7.1875 16.38C7.1875 16.38 8.74599 22.119 14.6139 21.9939C20.8138 21.8619 22.0417 16.38 22.0417 16.38C20.8438 13.337 17.8703 11.2927 14.6139 11.2927ZM14.6668 20.5092C12.1191 20.5092 9.79225 18.967 8.7884 16.6433C9.79201 14.3196 12.1191 12.7774 14.6668 12.7774C17.2153 12.7774 19.5426 14.3196 20.5464 16.6433C19.5428 18.967 17.2153 20.5092 14.6668 20.5092Z" fill="#212121"/>
<path d="M14.6676 13.7627C13.0791 13.7627 11.7868 15.0548 11.7868 16.6432C11.7868 18.2316 13.0791 19.5237 14.6676 19.5237C16.256 19.5237 17.5481 18.2316 17.5481 16.6432C17.5481 15.0548 16.256 13.7627 14.6676 13.7627ZM14.6676 18.039C13.8978 18.039 13.2715 17.4127 13.2715 16.6432C13.2715 15.8737 13.8978 15.2474 14.6676 15.2474C15.4373 15.2474 16.0634 15.8737 16.0634 16.6432C16.0634 17.4127 15.4373 18.039 14.6676 18.039Z" fill="#212121"/>
</svg>
