<svg width="15" height="16" viewBox="0 0 15 16" fill="none" xmlns="http://www.w3.org/2000/svg">
<path d="M14.75 14.9356C14.75 11.6368 13.4232 8.74498 11.4315 7.12641C10.5558 8.21875 9.23179 8.915 7.75005 8.915C6.26831 8.915 4.94422 8.21875 4.06854 7.12641C2.07689 8.74498 0.75 11.6368 0.75 14.9356C0.75 14.9356 3.621 16 7.68551 16C11.75 16 14.75 14.9356 14.75 14.9356Z" fill="#393939"/>
<path d="M7.74996 7.98311C9.88784 7.98311 11.6209 6.19603 11.6209 3.99155C11.6209 1.78708 9.88784 0 7.74996 0C5.61209 0 3.87899 1.78708 3.87899 3.99155C3.87899 6.19603 5.61209 7.98311 7.74996 7.98311Z" fill="#393939"/>
</svg>
