<svg width="15" height="16" viewBox="0 0 15 16" fill="none" xmlns="http://www.w3.org/2000/svg">
<path d="M7.52964 0.968506C5.66599 0.97085 3.87933 1.71222 2.56152 3.03003C1.24372 4.34784 0.502344 6.13449 0.5 7.99815C0.501406 9.86242 1.24237 11.65 2.56027 12.9686C3.87818 14.2871 5.66537 15.029 7.52964 15.0313C9.39453 15.0299 11.1826 14.2885 12.5013 12.9698C13.82 11.6511 14.5614 9.86304 14.5628 7.99815C14.5605 6.13357 13.8184 4.34611 12.4994 3.02815C11.1805 1.7102 9.39422 0.969443 7.52964 0.968506ZM7.52964 1.90567C8.33045 1.90451 9.12361 2.06132 9.86373 2.36713C10.6038 2.67294 11.2764 3.12173 11.8428 3.68782C12.4092 4.25391 12.8584 4.92617 13.1646 5.66611C13.4709 6.40604 13.6281 7.19912 13.6274 7.99992C13.6277 8.80068 13.4701 9.59363 13.1637 10.3335C12.8573 11.0733 12.4081 11.7455 11.8418 12.3116C11.2755 12.8777 10.6032 13.3267 9.86331 13.6329C9.1234 13.9391 8.3304 14.0964 7.52964 14.0959C6.72884 14.0966 5.93577 13.9394 5.19583 13.6331C4.45589 13.3269 3.78363 12.8777 3.21755 12.3113C2.65146 11.7449 2.20266 11.0723 1.89685 10.3322C1.59104 9.59212 1.43423 8.79895 1.4354 7.99815C1.43446 7.19758 1.59146 6.40469 1.89739 5.66488C2.20333 4.92507 2.65219 4.25288 3.21828 3.68679C3.78437 3.1207 4.45656 2.67183 5.19637 2.3659C5.93618 2.05997 6.72907 1.90297 7.52964 1.9039V1.90567ZM7.52433 4.25125C7.40043 4.25358 7.28249 4.3048 7.1962 4.39374C7.10991 4.48268 7.06229 4.60213 7.06372 4.72603V5.1211C6.30725 5.26282 5.65885 5.75001 5.65885 6.59506C5.65885 7.17968 5.92459 7.65446 6.27891 7.93083C6.63322 8.2072 7.0336 8.32767 7.38437 8.44459C7.73692 8.56329 8.03986 8.6749 8.2117 8.80954C8.38532 8.9424 8.46681 9.05756 8.46681 9.40833C8.46681 10.1878 6.59602 10.1878 6.59602 9.40833C6.59995 9.34437 6.59075 9.28028 6.56898 9.22002C6.54721 9.15975 6.51334 9.10457 6.46944 9.05789C6.42554 9.01121 6.37255 8.97401 6.31373 8.94858C6.25492 8.92315 6.19151 8.91004 6.12744 8.91004C6.06336 8.91004 5.99996 8.92315 5.94114 8.94858C5.88232 8.97401 5.82933 9.01121 5.78543 9.05789C5.74153 9.10457 5.70766 9.15975 5.68589 9.22002C5.66412 9.28028 5.65492 9.34437 5.65885 9.40833C5.65885 10.2516 6.30725 10.7406 7.06372 10.8823V11.2756C7.05978 11.3395 7.06898 11.4036 7.09075 11.4639C7.11252 11.5242 7.1464 11.5793 7.1903 11.626C7.23419 11.6727 7.28718 11.7099 7.346 11.7353C7.40482 11.7608 7.46822 11.7739 7.5323 11.7739C7.59638 11.7739 7.65978 11.7608 7.7186 11.7353C7.77742 11.7099 7.83041 11.6727 7.87431 11.626C7.9182 11.5793 7.95208 11.5242 7.97385 11.4639C7.99562 11.4036 8.00482 11.3395 8.00089 11.2756V10.8805C8.75735 10.7388 9.40575 10.2498 9.40575 9.40656C9.40575 8.82016 9.14001 8.34538 8.7857 8.07079C8.43138 7.79442 8.031 7.67041 7.68023 7.55348C7.32768 7.43656 7.02474 7.32495 6.85113 7.19208C6.67928 7.05744 6.59602 6.94406 6.59602 6.59328C6.59602 5.81202 8.46681 5.81202 8.46681 6.59328C8.46681 6.7178 8.51627 6.83721 8.60432 6.92525C8.69236 7.01329 8.81177 7.06275 8.93628 7.06275C9.06079 7.06275 9.1802 7.01329 9.26825 6.92525C9.35629 6.83721 9.40575 6.7178 9.40575 6.59328C9.40575 5.75001 8.75735 5.26282 8.00089 5.11933V4.72426C8.00161 4.66141 7.9897 4.59906 7.96588 4.54089C7.94205 4.48273 7.90679 4.42995 7.86218 4.38567C7.81757 4.34139 7.76452 4.30652 7.70618 4.28312C7.64784 4.25973 7.5854 4.24829 7.52256 4.24948L7.52433 4.25125Z" fill="#393939"/>
</svg>
