<svg width="20" height="16" viewBox="0 0 20 16" fill="none" xmlns="http://www.w3.org/2000/svg">
<path d="M4.35778 13.7537C4.44408 12.6819 5.21064 11.8735 6.14106 11.8735C6.19453 11.8735 6.24872 11.876 6.30292 11.8818L6.91456 11.948L6.71986 11.602C6.52087 11.311 6.36284 10.9853 6.25164 10.637C6.16274 10.3567 6.1048 10.0645 6.07921 9.76726L5.41611 11.3624L1.77727 12.7151C1.43162 12.8436 1.14411 13.126 0.97801 13.5003C0.811907 13.8745 0.780809 14.31 0.89156 14.7109C1.00231 15.1118 1.24584 15.4452 1.56856 15.6378C1.89129 15.8305 2.26679 15.8665 2.61244 15.7381L4.6001 14.9991C4.40767 14.6243 4.32295 14.1881 4.35778 13.7537ZM19.637 2.0675C19.0801 0.400576 17.4625 -0.426009 16.0259 0.21943C14.5878 0.865715 13.8751 2.74172 14.4329 4.40737C14.9905 6.07387 16.6061 6.90152 18.0436 6.25523C19.4799 5.60895 20.1941 3.73485 19.637 2.0675Z" fill="#393939"/>
<path d="M14.7496 11.6701L17.7177 13.1379C17.9402 13.2478 18.1913 13.2507 18.4158 13.146C18.6402 13.0414 18.8196 12.8377 18.9147 12.5797C19.0096 12.3216 19.0121 12.0303 18.9219 11.77C18.8316 11.5096 18.6559 11.3015 18.4333 11.1915L15.8322 9.90481L14.9156 6.93305C14.8945 6.86468 14.8674 6.79902 14.8346 6.73709C14.2748 5.28242 12.8313 4.56016 11.5246 5.12138L8.19506 6.55192C6.83383 7.13599 6.13898 8.89116 6.64479 10.4684C6.74289 10.7753 6.88314 11.0618 7.06009 11.3167L7.74089 12.5266L6.26525 12.3666C6.08631 12.3472 5.90583 12.3689 5.73411 12.4303C5.56239 12.4918 5.4028 12.592 5.26444 12.725C4.98502 12.9936 4.80906 13.38 4.77528 13.7991C4.7415 14.2182 4.85267 14.6358 5.08432 14.9598C5.31597 15.2839 5.64914 15.4879 6.01052 15.5271L10.3095 15.9931C10.5658 16.0209 10.8237 15.9643 11.0535 15.8298C11.2833 15.6953 11.4758 15.4884 11.6088 15.2328C11.7418 14.9772 11.8099 14.6832 11.8053 14.3847C11.8008 14.0862 11.7237 13.7953 11.583 13.5453L10.7002 11.9776L12.7548 11.095L12.7057 11.3823C12.6755 11.559 12.6848 11.7421 12.7327 11.9135L13.5612 14.884C13.6357 15.151 13.7987 15.3727 14.0141 15.5004C14.2296 15.6281 14.4799 15.6513 14.7102 15.565C14.9404 15.4786 15.1315 15.2896 15.2416 15.0398C15.3517 14.7899 15.3717 14.4996 15.2972 14.2326L14.5418 11.5239L14.5421 11.5214C14.6056 11.58 14.6737 11.6325 14.7496 11.6701Z" fill="#393939"/>
</svg>
