<svg width="21" height="16" viewBox="0 0 21 16" fill="none" xmlns="http://www.w3.org/2000/svg">
<path d="M12.1482 2.51572C12.1482 3.89937 13.3176 5.03145 14.7469 5.03145C16.1761 5.03145 17.3455 3.89937 17.3455 2.51572C17.3455 1.13208 16.1761 0 14.7469 0C13.3176 0 12.1482 1.10692 12.1482 2.51572ZM16.9038 5.93711H13.9153C12.9278 5.93711 12.1222 6.71698 12.1222 7.67296V15.1698C12.1222 15.6226 12.512 16 12.9798 16C13.4475 16 13.8373 15.6226 13.8373 15.1698V13.4843C13.8373 13.0314 14.2271 12.6541 14.6949 12.6541C15.1627 12.6541 15.5525 13.0314 15.5525 13.4843V15.1698C15.5525 15.6226 15.9423 16 16.41 16C16.8778 16 17.2676 15.6226 17.2676 15.1698V8.75472C17.2676 8.60377 17.4755 8.5283 17.5794 8.62893L18.9047 9.91195C19.2425 10.239 19.7883 10.239 20.1261 9.91195C20.4639 9.5849 20.4639 9.0566 20.1261 8.72956L17.6574 6.23899C17.4495 6.06289 17.1896 5.93711 16.9038 5.93711ZM0.63617 9.88679C0.973995 10.2138 1.51971 10.2138 1.85754 9.88679L2.40326 9.35849C2.5072 9.25786 2.68911 9.35849 2.66312 9.48428L1.80557 13.2075C1.77958 13.3585 1.88352 13.4843 2.03944 13.4843H3.07891C3.31279 13.4843 3.49469 13.6604 3.49469 13.8868V15.1698C3.49469 15.6226 3.88449 16 4.35225 16C4.82001 16 5.2098 15.6226 5.2098 15.1698V14.3396C5.2098 13.8868 5.5996 13.5094 6.06736 13.5094C6.53512 13.5094 6.92492 13.8868 6.92492 14.3396V15.1698C6.92492 15.6226 7.31472 16 7.78247 16C8.25023 16 8.64003 15.6226 8.64003 15.1698V13.8868C8.64003 13.6604 8.82193 13.4843 9.05581 13.4843H10.0953C10.2512 13.4843 10.3551 13.3585 10.3292 13.2075L8.92588 7.1195C8.76996 6.41509 8.1203 5.93711 7.39268 5.93711H4.89796C3.96245 5.93711 3.07891 6.28931 2.42924 6.91824L0.610184 8.67924C0.298345 9.03145 0.298345 9.55975 0.63617 9.88679ZM3.4687 2.51572C3.4687 3.89937 4.6381 5.03145 6.06736 5.03145C7.49662 5.03145 8.66602 3.89937 8.66602 2.51572C8.66602 1.13208 7.49662 0 6.06736 0C4.6381 0 3.4687 1.10692 3.4687 2.51572Z" fill="#393939"/>
</svg>
