<svg width="26" height="26" viewBox="0 0 26 26" fill="none" xmlns="http://www.w3.org/2000/svg">
<path d="M25.9994 13.2569C25.8795 13.6882 25.7161 14.0943 25.3862 14.4091C24.9655 14.8101 24.4672 14.9749 23.895 14.973C21.6797 14.9659 19.4637 14.973 17.2483 14.9652C17.0471 14.9646 16.9348 15.029 16.8289 15.2028C14.7807 18.5583 12.7249 21.9088 10.678 25.265C10.5707 25.4407 10.4578 25.5025 10.2585 25.4999C9.50406 25.4883 8.74963 25.4954 7.95104 25.4954C9.02592 21.9841 10.0926 18.4998 11.1675 14.9871C11.0514 14.98 10.9713 14.9717 10.8912 14.9717C8.70106 14.971 6.51031 14.973 4.32018 14.9678C4.15302 14.9678 4.04516 15.0148 3.9436 15.1558C3.3967 15.914 2.83655 16.6627 2.28839 17.4203C2.18872 17.558 2.08401 17.6166 1.91307 17.6134C1.36049 17.6025 0.807282 17.6095 0.221273 17.6095C0.279937 17.3875 0.327878 17.1924 0.382126 16.9987C0.733479 15.7409 1.08925 14.4844 1.43303 13.2247C1.47088 13.0863 1.47088 12.9183 1.43303 12.7793C1.06086 11.4121 0.676077 10.0481 0.295707 8.68344C0.272998 8.60234 0.252182 8.52123 0.21875 8.39378C0.4881 8.39378 0.735372 8.39378 0.982013 8.39378C1.3012 8.39378 1.62101 8.37898 1.9383 8.40151C2.05247 8.40987 2.19756 8.47746 2.26568 8.56758C2.83908 9.32649 3.39481 10.1002 3.96694 10.8604C4.03128 10.946 4.1669 11.0233 4.27035 11.0239C6.49454 11.0329 8.71809 11.031 10.9423 11.0303C11.006 11.0303 11.0697 11.0188 11.1668 11.0091C10.0932 7.5042 9.02781 4.02439 7.95041 0.504682C8.17687 0.504682 8.37431 0.504682 8.57175 0.504682C9.14262 0.504682 9.71349 0.512406 10.2837 0.500176C10.4654 0.496314 10.5663 0.555534 10.6628 0.713882C12.7117 4.06881 14.7681 7.41923 16.8156 10.7748C16.9323 10.966 17.0522 11.0355 17.2736 11.0349C19.3886 11.0252 21.5037 11.0638 23.6181 11.0162C24.8658 10.9885 25.7086 11.5498 26 12.7426V13.2562L25.9994 13.2569Z" fill="#27AE60"/>
</svg>
