<svg width="200" height="52" viewBox="0 0 200 52" fill="none" xmlns="http://www.w3.org/2000/svg">
<g clip-path="url(#clip0_78_246)">
<path d="M52.0155 12.438C59.6319 12.438 65.2661 17.5732 65.2661 25.4757C65.2661 31.9058 61.0754 38.4225 52.0155 38.4225C44.2195 38.4225 38.7206 33.3781 38.7206 25.4757C38.7206 17.5732 44.2195 12.438 52.0155 12.438ZM52.0155 18.152C47.5078 18.152 45.4812 21.724 45.4812 25.4735C45.4812 29.2229 47.51 32.7063 52.0155 32.7063C56.5211 32.7063 58.5056 29.1342 58.5056 25.4735C58.5056 21.8127 56.4767 18.152 52.0155 18.152Z" fill="white"/>
<path d="M92.5344 13.1517V37.93C92.5344 44.9389 88.7938 51.1007 79.3747 51.1007C73.1996 51.1007 69.2794 48.4666 67.1619 45.3424L71.8936 41.7704C72.9756 43.1096 75.3193 45.4755 78.9246 45.4755C82.306 45.4755 85.9557 43.1983 85.9557 37.2604V33.777C84.3792 35.7859 81.8537 37.2138 78.0244 37.2138C70.7229 37.2138 66.3969 32.0342 66.3969 24.8923C66.3969 17.7504 70.7229 12.4355 77.8891 12.4355C81.8093 12.4355 84.5588 14.0431 86.3171 16.542L87.3082 13.1495H92.5366L92.5344 13.1517ZM85.9534 24.9389C85.9534 21.0098 83.4745 18.2426 79.4634 18.2426C75.4523 18.2426 72.9734 21.0098 72.9734 24.9389C72.9734 28.8679 75.5433 31.6351 79.4634 31.6351C83.3836 31.6351 85.9534 28.9566 85.9534 24.9389Z" fill="white"/>
<path d="M94.9246 25.3848C94.9246 18.285 99.0266 12.438 107.319 12.438C115.612 12.438 119.758 18.1963 118.317 27.3936H101.867C102.364 30.7418 104.302 33.1985 108.086 33.1985C111.016 33.1985 113.539 32.1276 115.703 30.6974L118.408 35.2074C115.523 37.2163 112.503 38.4225 108.086 38.4225C100.109 38.4225 94.9268 33.2429 94.9268 25.3848H94.9246ZM101.865 23.4646H112.681C112.772 20.5622 111.51 17.3493 107.452 17.3493C103.395 17.3493 101.865 20.8327 101.865 23.4646Z" fill="white"/>
<path d="M145.087 22.6152V37.7061H138.282L138.326 23.6862C138.326 20.5155 137.379 18.5975 134.541 18.5975C132.603 18.5975 130.395 20.0698 128.412 22.6152V37.7061H121.652V13.1496H126.925L128.051 16.5421C129.809 14.4888 132.468 12.48 136.118 12.48C140.94 12.48 145.087 14.9345 145.087 22.6152Z" fill="white"/>
<path d="M147.477 25.4732C147.477 17.3912 152.885 12.4355 160.636 12.4355C165.503 12.4355 169.244 14.4444 171.543 17.5708L166.856 20.7415C165.594 19.134 163.521 18.063 160.863 18.063C156.49 18.063 153.967 21.1894 153.967 25.4755C153.967 29.7615 156.49 32.797 160.772 32.797C163.565 32.797 165.73 31.5464 166.856 30.1185L171.543 33.2892C169.47 36.1473 165.956 38.4245 160.636 38.4245C152.885 38.4245 147.477 33.4688 147.477 25.4777V25.4732Z" fill="white"/>
<path d="M194.619 13.1516L185.244 40.564C183.08 47.3512 179.971 51.7259 170.911 49.4487L171.361 43.1982C177.04 45.4754 177.896 42.349 179.563 37.706L170.82 13.1494H177.581L182.854 30.2935L188.038 13.1494H194.619V13.1516Z" fill="white"/>
<path d="M194.845 30.0273C197.188 30.0273 198.812 31.7236 198.812 34.1803C198.812 36.4132 197.279 38.422 194.845 38.422C192.41 38.422 190.878 36.6371 190.878 34.1803C190.878 31.7236 192.41 30.0273 194.845 30.0273Z" fill="white"/>
<path d="M32.3104 17.256C32.3016 17.1606 32.2905 17.0675 32.2816 16.9722C32.3016 17.0631 32.3127 17.1584 32.3104 17.256Z" fill="#24EA28"/>
<path d="M36.827 19.1521V27.8617C36.827 28.1654 36.7051 28.4537 36.4944 28.6643L30.4279 34.7331C29.6896 35.4714 28.4301 34.9481 28.4301 33.906V27.4958C28.4301 27.3096 28.3836 27.1388 28.3082 26.9814C28.1264 26.6133 27.7472 26.3606 27.3015 26.3606H20.7273C19.714 26.3606 19.2062 25.1366 19.9246 24.4226L25.8714 18.3184C26.082 18.1078 26.357 17.9903 26.6563 17.9858H35.6585C36.306 17.9858 36.8293 18.5091 36.8293 19.1566L36.827 19.1521Z" fill="#24EA28"/>
<path d="M35.6763 11.5446C34.7428 9.45144 33.4346 7.56674 31.8337 5.96585C28.204 2.33614 23.0798 0.196447 17.4678 0.548996C8.20619 1.13215 0.69178 8.64434 0.0975451 17.906C-0.261657 23.5268 1.88025 28.6576 5.51218 32.2918C8.62526 35.4049 12.8315 37.4182 17.51 37.7042C17.5676 37.7086 17.623 37.7042 17.6763 37.6998V37.7064H22.6031C23.1286 37.7064 23.5565 37.2785 23.5565 36.753V31.0435C23.5565 30.5157 23.1286 30.09 22.6031 30.09H17.6763C11.8692 29.5667 7.34588 24.5135 7.68069 18.5024C8.00442 12.702 12.949 8.07006 18.7583 8.11662C22.3503 8.14545 25.5388 9.90376 27.5321 12.5933C27.7428 12.8772 28.0643 13.0523 28.4168 13.0523H34.6718C35.4501 13.0523 35.9911 12.2519 35.674 11.5401L35.6763 11.5446Z" fill="#24EA28"/>
</g>
<defs>
<clipPath id="clip0_78_246">
<rect width="200" height="50.5543" fill="white" transform="translate(0 0.61084)"/>
</clipPath>
</defs>
</svg>
