<svg width="25" height="21" viewBox="0 0 25 21" fill="none" xmlns="http://www.w3.org/2000/svg">
<path d="M16.8493 4.05741V1.28633C16.8493 0.85205 16.4973 0.5 16.063 0.5H8.93695C8.50267 0.5 8.15062 0.85205 8.15062 1.28633V4.05741H5.92098V20.3083H19.0789V4.05741H16.8493ZM15.2767 4.05116H9.72327V2.07265H15.2766L15.2767 4.05116ZM2.6729 4.05741C1.19907 4.05741 0 5.25644 0 6.73026V17.6354C0 19.1091 1.19907 20.3082 2.6729 20.3082H4.34833V4.05741H2.6729ZM22.3271 4.05741H20.6517V20.3083H22.3271C23.8009 20.3083 25 19.1092 25 17.6354V6.73026C24.9999 5.25644 23.8009 4.05741 22.3271 4.05741Z" fill="#393939"/>
</svg>
