<svg width="16" height="15" viewBox="0 0 16 15" fill="none" xmlns="http://www.w3.org/2000/svg">
<g clip-path="url(#clip0_138_3003)">
<path d="M12.3752 7.49949C12.0296 7.49949 11.7502 7.77954 11.7502 8.12446V13.1245C11.7502 13.4689 11.4702 13.7495 11.1253 13.7495H2.37524C2.03021 13.7495 1.75028 13.4689 1.75028 13.1245V4.37446C1.75028 4.0301 2.03021 3.74949 2.37524 3.74949H7.37528C7.7209 3.74949 8.00024 3.46948 8.00024 3.12453C8.00024 2.7795 7.7209 2.49946 7.37528 2.49946H2.37524C1.3415 2.49946 0.500244 3.34072 0.500244 4.37446V13.1245C0.500244 14.1583 1.3415 14.9995 2.37524 14.9995H11.1253C12.159 14.9995 13.0003 14.1583 13.0003 13.1245V8.12446C13.0003 7.77887 12.7208 7.49949 12.3752 7.49949Z" fill="#393939"/>
<path d="M6.35996 6.93014C6.31652 6.97378 6.28677 7.02915 6.27435 7.08946L5.8325 9.29955C5.8119 9.40197 5.84439 9.50759 5.9181 9.58197C5.94719 9.61097 5.98171 9.63395 6.01968 9.64961C6.05766 9.66526 6.09834 9.67328 6.13941 9.67321C6.15933 9.67321 6.18005 9.67136 6.20064 9.66702L8.41004 9.22517C8.47127 9.21257 8.52687 9.18327 8.57003 9.13945L13.515 4.19443L11.3056 1.98515L6.35996 6.93014ZM15.0425 0.457053C14.4332 -0.152351 13.4419 -0.152351 12.8331 0.457053L11.9681 1.32199L14.1775 3.53138L15.0425 2.66633C15.3375 2.37198 15.5 1.97944 15.5 1.56196C15.5 1.14448 15.3375 0.751956 15.0425 0.457053Z" fill="#393939"/>
</g>
<defs>
<clipPath id="clip0_138_3003">
<rect width="14.9998" height="14.9995" fill="white" transform="translate(0.500244)"/>
</clipPath>
</defs>
</svg>
